<svg xmlns="http://www.w3.org/2000/svg" fill="none" viewBox="0 0 48 48">
  <path stroke="#0047BA" stroke-linecap="round" stroke-linejoin="round" stroke-width="2" d="M28 4.54v8.26c0 1.12 0 1.68.218 2.108a2 2 0 0 0 .874.874C29.52 16 30.08 16 31.2 16h8.261M28 4H17.6c-3.36 0-5.04 0-6.324.654a6 6 0 0 0-2.622 2.622C8 8.56 8 10.24 8 13.6v20.8c0 3.36 0 5.04.654 6.324a6 6 0 0 0 2.622 2.622C12.56 44 14.24 44 17.6 44h12.8c3.36 0 5.04 0 6.324-.654a6 6 0 0 0 2.622-2.622C40 39.44 40 37.76 40 34.4V16L28 4Zm-4.006 19.661c-1.599-1.818-4.266-2.307-6.27-.642-2.004 1.665-2.286 4.448-.713 6.417C18.585 31.405 23.994 36 23.994 36s5.41-4.595 6.984-6.564c1.573-1.969 1.326-4.77-.713-6.417-2.038-1.647-4.671-1.176-6.27.642Z"/>
</svg>
