<svg xmlns="http://www.w3.org/2000/svg" fill="none" viewBox="0 0 48 48">
  <path stroke="#0047BA" stroke-linecap="round" stroke-linejoin="round" stroke-width="2" d="M24 44c11.046 0 20-8.954 20-20S35.046 4 24 4 4 12.954 4 24s8.954 20 20 20Z"/>
  <path stroke="#0047BA" stroke-linecap="round" stroke-linejoin="round" stroke-width="2" d="M27.667 14.6c0-.56 0-.84-.11-1.054a1 1 0 0 0-.436-.437C26.907 13 26.627 13 26.067 13h-4.134c-.56 0-.84 0-1.054.109a1 1 0 0 0-.437.437c-.109.214-.109.494-.109 1.054v4.133c0 .56 0 .84-.109 1.054a.999.999 0 0 1-.437.437c-.214.11-.494.11-1.054.11H14.6c-.56 0-.84 0-1.054.108a1 1 0 0 0-.437.437c-.109.214-.109.494-.109 1.054v4.134c0 .56 0 .84.109 1.054a1 1 0 0 0 .437.437c.214.109.494.109 1.054.109h4.133c.56 0 .84 0 1.054.109a.999.999 0 0 1 .437.437c.11.214.11.494.11 1.054V33.4c0 .56 0 .84.108 1.054a1 1 0 0 0 .437.437c.214.109.494.109 1.054.109h4.134c.56 0 .84 0 1.054-.109a1 1 0 0 0 .437-.437c.109-.214.109-.494.109-1.054v-4.133c0-.56 0-.84.109-1.054a.999.999 0 0 1 .437-.437c.214-.11.494-.11 1.054-.11H33.4c.56 0 .84 0 1.054-.108a1 1 0 0 0 .437-.437c.109-.214.109-.494.109-1.054v-4.134c0-.56 0-.84-.109-1.054a1 1 0 0 0-.437-.437c-.214-.109-.494-.109-1.054-.109h-4.133c-.56 0-.84 0-1.054-.109a.999.999 0 0 1-.437-.437c-.11-.214-.11-.494-.11-1.054V14.6Z"/>
</svg>
